<svg fill="#64748B" role="img" viewBox="0 0 24 24" xmlns="http://www.w3.org/2000/svg"><title>Social link</title><path d="M12 2a10 10 0 1 0 0 20 10 10 0 0 0 0-20Zm6.93 9h-3.08a15.55 15.55 0 0 0-1.13-5.03A8.03 8.03 0 0 1 18.93 11ZM12 4.04c.55.8 1.51 2.63 1.82 6.96h-3.64C10.49 6.67 11.45 4.84 12 4.04ZM4.06 13h3.08c.15 1.96.54 3.7 1.13 5.03A8.03 8.03 0 0 1 4.06 13Zm3.08-2H4.06a8.03 8.03 0 0 1 4.21-5.03A15.55 15.55 0 0 0 7.14 11ZM12 19.96c-.55-.8-1.51-2.63-1.82-6.96h3.64c-.31 4.33-1.27 6.16-1.82 6.96Zm3.73-1.93c.59-1.33.98-3.07 1.13-5.03h3.08a8.03 8.03 0 0 1-4.21 5.03Z"/></svg>
